<svg width="23" height="17" viewBox="0 0 23 17" fill="none" xmlns="http://www.w3.org/2000/svg">
<path d="M0.25 16.375V9.625C0.25 9.11875 0.353125 8.65938 0.559375 8.24688C0.765625 7.83437 1.0375 7.46875 1.375 7.15V4C1.375 3.0625 1.70312 2.26562 2.35938 1.60938C3.01562 0.953125 3.8125 0.625 4.75 0.625H9.25C9.68125 0.625 10.0844 0.704688 10.4594 0.864063C10.8344 1.02344 11.1812 1.24375 11.5 1.525C11.8188 1.24375 12.1656 1.02344 12.5406 0.864063C12.9156 0.704688 13.3188 0.625 13.75 0.625H18.25C19.1875 0.625 19.9844 0.953125 20.6406 1.60938C21.2969 2.26562 21.625 3.0625 21.625 4V7.15C21.9625 7.46875 22.2344 7.83437 22.4406 8.24688C22.6469 8.65938 22.75 9.11875 22.75 9.625V16.375H20.5V14.125H2.5V16.375H0.25ZM12.625 6.25H19.375V4C19.375 3.68125 19.2672 3.41406 19.0516 3.19844C18.8359 2.98281 18.5688 2.875 18.25 2.875H13.75C13.4312 2.875 13.1641 2.98281 12.9484 3.19844C12.7328 3.41406 12.625 3.68125 12.625 4V6.25ZM3.625 6.25H10.375V4C10.375 3.68125 10.2672 3.41406 10.0516 3.19844C9.83594 2.98281 9.56875 2.875 9.25 2.875H4.75C4.43125 2.875 4.16406 2.98281 3.94844 3.19844C3.73281 3.41406 3.625 3.68125 3.625 4V6.25Z" fill="#282F89"/>
</svg>
